<svg width="24" height="16" viewBox="0 0 24 16" fill="none" xmlns="http://www.w3.org/2000/svg">
<path d="M13.0316 15.35C5.13926 15.35 0.637571 9.83201 0.450001 0.650024H4.4034C4.53326 7.38936 7.44781 10.244 9.75637 10.8326V0.650024H13.4789V6.46234C15.7586 6.21219 18.1537 3.56354 18.9617 0.650024H22.6843C22.3798 2.16106 21.7729 3.59176 20.9015 4.85265C20.0301 6.11354 18.9129 7.17749 17.6199 7.97795C19.0632 8.70936 20.338 9.7446 21.3602 11.0154C22.3824 12.2861 23.1288 13.7635 23.55 15.35H19.4523C19.0742 13.972 18.3057 12.7385 17.2431 11.804C16.1805 10.8695 14.871 10.2757 13.4789 10.0969V15.35H13.0316V15.35Z" fill="white"/>
</svg>
